<svg xmlns="http://www.w3.org/2000/svg" xmlns:xlink="http://www.w3.org/1999/xlink" width="2010" height="246" viewBox="0 0 2010 246">
  <defs>
    <filter id="Rectangle_38" x="0" y="0" width="1308" height="246" filterUnits="userSpaceOnUse">
      <feOffset dx="20" dy="-20" input="SourceAlpha"/>
      <feGaussianBlur stdDeviation="15" result="blur"/>
      <feFlood flood-opacity="0.161"/>
      <feComposite operator="in" in2="blur"/>
      <feComposite in="SourceGraphic"/>
    </filter>
    <filter id="Rectangle_37" x="1149" y="11" width="861" height="235" filterUnits="userSpaceOnUse">
      <feOffset dx="20" dy="-20" input="SourceAlpha"/>
      <feGaussianBlur stdDeviation="15" result="blur-2"/>
      <feFlood flood-opacity="0.161"/>
      <feComposite operator="in" in2="blur-2"/>
      <feComposite in="SourceGraphic"/>
    </filter>
  </defs>
  <g id="Footer" transform="translate(25 -1602)">
    <g transform="matrix(1, 0, 0, 1, -25, 1602)" filter="url(#Rectangle_38)">
      <path id="Rectangle_38-2" data-name="Rectangle 38" d="M0,0H1198a20,20,0,0,1,20,20V136a20,20,0,0,1-20,20H0a0,0,0,0,1,0,0V0A0,0,0,0,1,0,0Z" transform="translate(25 65)" fill="#545454"/>
    </g>
    <g transform="matrix(1, 0, 0, 1, -25, 1602)" filter="url(#Rectangle_37)">
      <path id="Rectangle_37-2" data-name="Rectangle 37" d="M20,0H771a0,0,0,0,1,0,0V145a0,0,0,0,1,0,0H20A20,20,0,0,1,0,125V20A20,20,0,0,1,20,0Z" transform="translate(1174 76)" fill="#ddd052"/>
    </g>
  </g>
</svg>
